<svg xmlns="http://www.w3.org/2000/svg" width="10" height="10" viewBox="0 0 10 10"><path d="M8.59,8.33A4.75,4.75,0,0,1,4.86,9.91,4.93,4.93,0,0,1,.2,6a4.75,4.75,0,0,1,.94-4A4.64,4.64,0,0,1,4.64.11,4.76,4.76,0,0,1,9,2.1a4.28,4.28,0,0,1,.35.52H8.42a.43.43,0,0,1-.15-.15A4,4,0,0,0,5.49.89a4.14,4.14,0,0,0-1.3,8.17A4.18,4.18,0,0,0,9.08,5.73a4.27,4.27,0,0,0,0-1.47H8.23a3.54,3.54,0,0,1-.46,0,.19.19,0,0,0-.2.12c-.37.77-.76,1.53-1.14,2.28-.1.24-.22.46-.35.72L5,5.2c-.37.72-.71,1.43-1.08,2.16L2,3.47h.77c.08,0,.12,0,.14.09.33.66.67,1.32,1,2l0,.1C4.29,4.9,4.63,4.2,5,3.47c.36.73.72,1.43,1.08,2.14l0-.08c.34-.65.66-1.3,1-1.95,0-.09.07-.11.16-.11H9.56c.08,0,.12,0,.14.11A4.77,4.77,0,0,1,8.59,8.33Z" fill="#fff" stroke="#000" stroke-miterlimit="10" stroke-width="0.1"/></svg>